<svg xmlns="http://www.w3.org/2000/svg" xmlns:xlink="http://www.w3.org/1999/xlink" width="44" zoomAndPan="magnify" viewBox="0 0 33 32.999998" height="44" preserveAspectRatio="xMidYMid meet" version="1.0"><defs><g/><clipPath id="1cad1053b0"><path d="M 23.222656 0.492188 L 27.382812 0.492188 L 27.382812 7.242188 L 23.222656 7.242188 Z M 23.222656 0.492188 " clip-rule="nonzero"/></clipPath></defs><g clip-path="url(#1cad1053b0)"><path fill="#0c3a53" d="M 27.164062 7.046875 C 27.3125 6.914062 27.386719 6.753906 27.386719 6.566406 C 27.386719 6.378906 27.3125 6.21875 27.164062 6.089844 L 24.691406 3.867188 L 27.164062 1.648438 C 27.3125 1.515625 27.386719 1.359375 27.386719 1.171875 C 27.386719 0.984375 27.3125 0.824219 27.164062 0.691406 C 27.019531 0.558594 26.839844 0.492188 26.632812 0.492188 C 26.425781 0.492188 26.246094 0.558594 26.101562 0.691406 L 23.101562 3.390625 C 22.953125 3.523438 22.878906 3.679688 22.878906 3.867188 C 22.878906 4.054688 22.953125 4.214844 23.101562 4.347656 L 26.101562 7.046875 C 26.246094 7.179688 26.425781 7.246094 26.632812 7.246094 C 26.839844 7.246094 27.019531 7.179688 27.164062 7.046875 Z M 27.164062 7.046875 " fill-opacity="1" fill-rule="nonzero"/></g><g fill="#23bab1" fill-opacity="1"><g transform="translate(4.788636, 32.05974)"><g><path d="M 14.578125 -21.003906 C 14.578125 -17.714844 10.167969 -17.714844 10.167969 -17.714844 L 5.679688 -17.714844 L 5.679688 -24.554688 L 10.167969 -24.554688 C 10.167969 -24.554688 14.578125 -24.59375 14.578125 -21.003906 Z M 20.292969 -21.339844 C 20.292969 -30.125 10.167969 -29.898438 10.167969 -29.898438 L 0.410156 -29.898438 C 0.1875 -29.898438 0 -29.714844 0 -29.5625 L 0 -12.148438 L 10.167969 -12.148438 C 10.167969 -12.148438 14.988281 -12.371094 14.988281 -8.859375 C 14.988281 -5.980469 12.035156 -5.457031 10.167969 -5.457031 L 5.71875 -5.457031 L 5.71875 0 L 10.167969 0 C 12.183594 0 20.707031 -0.375 20.707031 -8.707031 C 20.707031 -8.707031 20.894531 -13.34375 16.144531 -14.949219 C 18.425781 -15.882812 20.292969 -17.867188 20.292969 -21.339844 Z M 20.292969 -21.339844 "/></g></g></g></svg>